<svg xmlns="http://www.w3.org/2000/svg" version="1.1" xmlns:xlink="http://www.w3.org/1999/xlink" xmlns:svgjs="http://svgjs.dev/svgjs" width="2000" height="1247" viewBox="0 0 2000 1247"><g transform="matrix(1,0,0,1,-1.2121212121212466,0.504858299595071)"><svg viewBox="0 0 396 247" data-background-color="#ffffff" preserveAspectRatio="xMidYMid meet" height="1247" width="2000" xmlns="http://www.w3.org/2000/svg" xmlns:xlink="http://www.w3.org/1999/xlink"><g id="tight-bounds" transform="matrix(1,0,0,1,0.2400000000000091,-0.09999999999999432)"><svg viewBox="0 0 395.52 247.2" height="247.2" width="395.52"><g><svg></svg></g><g><svg viewBox="0 0 395.52 247.2" height="247.2" width="395.52"><g transform="matrix(1,0,0,1,113.89538278931751,47.215199999999996)"><svg viewBox="0 0 167.72923442136496 152.7696" height="152.7696" width="167.72923442136496"><g><svg viewBox="0 0 167.72923442136496 152.7696" height="152.7696" width="167.72923442136496"><g><svg viewBox="0 0 167.72923442136496 152.7696" height="152.7696" width="167.72923442136496"><g><svg viewBox="0 0 167.72923442136496 152.7696" height="152.7696" width="167.72923442136496"><g><svg viewBox="0 0 167.72923442136496 152.7696" height="152.7696" width="167.72923442136496"><g><svg viewBox="0 0 167.72923442136496 152.7696" height="152.7696" width="167.72923442136496"><g transform="matrix(1,0,0,1,0,0)"><svg width="167.72923442136496" viewBox="3.200000047683716 -33.70000076293945 37 33.70000076293945" height="152.7696" data-palette-color="#ee3e38"><path d="M9.3-13.2L8.3 0 3.2 0 5.8-33.7 11.9-33.7 16.4-21.4Q17.6-18.25 18.8-14.73 20-11.2 20.6-9.25L20.6-9.25 21.25-7.3Q23.55-14.1 26.3-21.4L26.3-21.4 31-33.7 37.1-33.7 40.2 0 35.1 0 33.9-13.2 32.85-26.7Q30.6-20.35 27.95-13.2L27.95-13.2 23.25-0.65 19.2-0.65 14.65-13.2 10.1-26.5Q10.1-24.3 9.3-13.2L9.3-13.2Z" opacity="1" transform="matrix(1,0,0,1,0,0)" fill="#ee3e38" class="undefined-text-0" data-fill-palette-color="primary" id="text-0"></path></svg></g></svg></g></svg></g></svg></g></svg></g></svg></g></svg></g><g><path d="M207.465 0c30.402 0 58.24 10.976 79.768 29.183l-11.147 0c-19.26-14.022-42.974-22.294-68.621-22.295-25.647 0-49.361 8.272-68.621 22.295l-11.148 0c21.528-18.206 49.366-29.183 79.769-29.183zM331.065 123.6c0 24.49-7.123 47.317-19.41 66.521l0-13.874c8.008-15.818 12.521-33.706 12.521-52.647 0-18.942-4.512-36.83-12.521-52.647v-13.874c12.287 19.204 19.409 42.031 19.41 66.521zM207.465 247.2c-30.402 0-58.24-10.976-79.769-29.183l11.148 0c19.26 14.022 42.974 22.294 68.621 22.295 25.647 0 49.361-8.272 68.621-22.295l11.147 0c-21.528 18.206-49.366 29.183-79.768 29.183z" fill="#ee3e38" stroke="transparent" data-fill-palette-color="tertiary"></path></g></svg></g><defs></defs></svg><rect width="395.52" height="247.2" fill="none" stroke="none" visibility="hidden"></rect></g></svg></g></svg>